<svg width="20" height="20" viewBox="0 0 20 20" fill="none" xmlns="http://www.w3.org/2000/svg">
<path d="M17.8666 9.20855L10.2083 16.8669C9.27011 17.8051 7.99763 18.3322 6.67081 18.3322C5.34399 18.3322 4.07151 17.8051 3.13331 16.8669C2.19511 15.9287 1.66803 14.6562 1.66803 13.3294C1.66803 12.0026 2.19511 10.7301 3.13331 9.79188L10.275 2.65021C10.9004 2.02364 11.7492 1.67119 12.6345 1.67041C13.5199 1.66963 14.3692 2.02058 14.9958 2.64604C15.6224 3.27151 15.9748 4.12027 15.9756 5.0056C15.9764 5.89093 15.6254 6.7403 15 7.36688L7.84164 14.5085C7.52891 14.8213 7.10475 14.997 6.66248 14.997C6.2202 14.997 5.79604 14.8213 5.48331 14.5085C5.17058 14.1958 4.99488 13.7717 4.99488 13.3294C4.99488 12.8871 5.17058 12.4629 5.48331 12.1502L12.5583 5.08354" stroke="#9CA3AF" stroke-width="2" stroke-linecap="round" stroke-linejoin="round"/>
</svg>
