<svg width="21" height="20" viewBox="0 0 21 20" fill="none" xmlns="http://www.w3.org/2000/svg">
<g clip-path="url(#clip0_115_493)">
<path d="M19.2083 14.1V16.6C19.2093 16.8321 19.1617 17.0618 19.0688 17.2744C18.9758 17.4871 18.8394 17.678 18.6684 17.8349C18.4974 17.9918 18.2955 18.1112 18.0756 18.1856C17.8558 18.2599 17.6228 18.2875 17.3917 18.2666C14.8274 17.988 12.3642 17.1118 10.2 15.7083C8.18652 14.4289 6.47945 12.7218 5.2 10.7083C3.79165 8.53432 2.9152 6.05914 2.64167 3.48331C2.62084 3.25287 2.64823 3.02061 2.72208 2.80133C2.79594 2.58205 2.91464 2.38055 3.07064 2.20966C3.22663 2.03877 3.4165 1.90224 3.62816 1.80875C3.83981 1.71526 4.06862 1.66686 4.3 1.66665H6.8C7.20442 1.66267 7.59649 1.80588 7.90313 2.06959C8.20978 2.3333 8.41006 2.69952 8.46667 3.09998C8.57219 3.90003 8.76788 4.68558 9.05 5.44165C9.16212 5.73992 9.18639 6.06407 9.11992 6.37571C9.05346 6.68735 8.89905 6.9734 8.675 7.19998L7.61667 8.25831C8.80296 10.3446 10.5304 12.072 12.6167 13.2583L13.675 12.2C13.9016 11.9759 14.1876 11.8215 14.4993 11.7551C14.8109 11.6886 15.1351 11.7129 15.4333 11.825C16.1894 12.1071 16.9749 12.3028 17.775 12.4083C18.1798 12.4654 18.5495 12.6693 18.8138 12.9812C19.0781 13.2931 19.2185 13.6913 19.2083 14.1Z" stroke="#4B5563" stroke-width="2" stroke-linecap="round" stroke-linejoin="round"/>
</g>
<defs>
<clipPath id="clip0_115_493">
<rect width="20" height="20" fill="white" transform="translate(0.875)"/>
</clipPath>
</defs>
</svg>
