<svg width="21" height="20" viewBox="0 0 21 20" fill="none" xmlns="http://www.w3.org/2000/svg">
<path d="M12.625 1.66669H5.125C4.68298 1.66669 4.25905 1.84228 3.94649 2.15484C3.63393 2.4674 3.45834 2.89133 3.45834 3.33335V16.6667C3.45834 17.1087 3.63393 17.5326 3.94649 17.8452C4.25905 18.1578 4.68298 18.3334 5.125 18.3334H15.125C15.567 18.3334 15.991 18.1578 16.3035 17.8452C16.6161 17.5326 16.7917 17.1087 16.7917 16.6667V5.83335L12.625 1.66669Z" stroke="#4B5563" stroke-width="2" stroke-linecap="round" stroke-linejoin="round"/>
<path d="M11.7917 1.66669V5.00002C11.7917 5.44205 11.9673 5.86597 12.2798 6.17853C12.5924 6.49109 13.0163 6.66669 13.4583 6.66669H16.7917" stroke="#4B5563" stroke-width="2" stroke-linecap="round" stroke-linejoin="round"/>
<path d="M8.45833 7.5H6.79166" stroke="#4B5563" stroke-width="2" stroke-linecap="round" stroke-linejoin="round"/>
<path d="M13.4583 10.8333H6.79166" stroke="#4B5563" stroke-width="2" stroke-linecap="round" stroke-linejoin="round"/>
<path d="M13.4583 14.1667H6.79166" stroke="#4B5563" stroke-width="2" stroke-linecap="round" stroke-linejoin="round"/>
</svg>
