<svg width="21" height="20" viewBox="0 0 21 20" fill="none" xmlns="http://www.w3.org/2000/svg">
<path d="M13.0078 1.66666H5.50782C5.0658 1.66666 4.64187 1.84225 4.32931 2.15481C4.01675 2.46737 3.84116 2.8913 3.84116 3.33332V16.6667C3.84116 17.1087 4.01675 17.5326 4.32931 17.8452C4.64187 18.1577 5.0658 18.3333 5.50782 18.3333H15.5078C15.9498 18.3333 16.3738 18.1577 16.6863 17.8452C16.9989 17.5326 17.1745 17.1087 17.1745 16.6667V5.83332L13.0078 1.66666Z" stroke="#374151" stroke-width="2" stroke-linecap="round" stroke-linejoin="round"/>
<path d="M12.1745 1.66666V4.99999C12.1745 5.44202 12.3501 5.86594 12.6626 6.1785C12.9752 6.49106 13.3991 6.66666 13.8411 6.66666H17.1745" stroke="#374151" stroke-width="2" stroke-linecap="round" stroke-linejoin="round"/>
<path d="M8.84114 7.5H7.17447" stroke="#374151" stroke-width="2" stroke-linecap="round" stroke-linejoin="round"/>
<path d="M13.8411 10.8333H7.17447" stroke="#374151" stroke-width="2" stroke-linecap="round" stroke-linejoin="round"/>
<path d="M13.8411 14.1667H7.17447" stroke="#374151" stroke-width="2" stroke-linecap="round" stroke-linejoin="round"/>
</svg>
