<svg width="21" height="20" viewBox="0 0 21 20" fill="none" xmlns="http://www.w3.org/2000/svg">
<path d="M10.2109 2.5H4.3776C3.93558 2.5 3.51165 2.67559 3.19909 2.98816C2.88653 3.30072 2.71094 3.72464 2.71094 4.16667V15.8333C2.71094 16.2754 2.88653 16.6993 3.19909 17.0118C3.51165 17.3244 3.93558 17.5 4.3776 17.5H16.0443C16.4863 17.5 16.9102 17.3244 17.2228 17.0118C17.5353 16.6993 17.7109 16.2754 17.7109 15.8333V10" stroke="black" stroke-width="2" stroke-linecap="round" stroke-linejoin="round"/>
<path d="M15.5234 2.18744C15.855 1.85592 16.3046 1.66968 16.7734 1.66968C17.2423 1.66968 17.6919 1.85592 18.0234 2.18744C18.355 2.51897 18.5412 2.9686 18.5412 3.43744C18.5412 3.90629 18.355 4.35592 18.0234 4.68744L10.5126 12.1991C10.3147 12.3968 10.0703 12.5415 9.80177 12.6199L7.4076 13.3199C7.33589 13.3409 7.25988 13.3421 7.18753 13.3236C7.11517 13.305 7.04912 13.2674 6.99631 13.2146C6.94349 13.1618 6.90584 13.0957 6.8873 13.0234C6.86877 12.951 6.87002 12.875 6.89093 12.8033L7.59093 10.4091C7.66971 10.1408 7.81471 9.89666 8.0126 9.69911L15.5234 2.18744Z" stroke="black" stroke-width="2" stroke-linecap="round" stroke-linejoin="round"/>
</svg>
