<svg width="21" height="20" viewBox="0 0 21 20" fill="none" xmlns="http://www.w3.org/2000/svg">
<path d="M18.7333 15L12.0667 3.33335C11.9213 3.07685 11.7105 2.8635 11.4558 2.71507C11.201 2.56664 10.9115 2.48843 10.6167 2.48843C10.3218 2.48843 10.0323 2.56664 9.77757 2.71507C9.52283 2.8635 9.31203 3.07685 9.16667 3.33335L2.5 15C2.35307 15.2545 2.27603 15.5433 2.27668 15.8371C2.27733 16.1309 2.35565 16.4194 2.50371 16.6732C2.65176 16.927 2.86429 17.1372 3.11975 17.2824C3.3752 17.4276 3.66451 17.5027 3.95834 17.5H17.2917C17.5841 17.4997 17.8713 17.4225 18.1244 17.2761C18.3775 17.1297 18.5877 16.9193 18.7338 16.6659C18.8798 16.4126 18.9567 16.1253 18.9566 15.8329C18.9566 15.5405 18.8795 15.2533 18.7333 15Z" stroke="#374151" stroke-width="2" stroke-linecap="round" stroke-linejoin="round"/>
<path d="M10.625 7.5V10.8333" stroke="#374151" stroke-width="2" stroke-linecap="round" stroke-linejoin="round"/>
<path d="M10.625 14.1667H10.6333" stroke="#374151" stroke-width="2" stroke-linecap="round" stroke-linejoin="round"/>
</svg>
