<svg width="20" height="21" viewBox="0 0 20 21" fill="none" xmlns="http://www.w3.org/2000/svg">
<path d="M1.71835 10.7901C1.6489 10.603 1.6489 10.3972 1.71835 10.2101C2.39476 8.56993 3.54294 7.16759 5.01732 6.1808C6.4917 5.19402 8.22588 4.66724 10 4.66724C11.7741 4.66724 13.5083 5.19402 14.9827 6.1808C16.4571 7.16759 17.6053 8.56993 18.2817 10.2101C18.3511 10.3972 18.3511 10.603 18.2817 10.7901C17.6053 12.4302 16.4571 13.8325 14.9827 14.8193C13.5083 15.8061 11.7741 16.3329 10 16.3329C8.22588 16.3329 6.4917 15.8061 5.01732 14.8193C3.54294 13.8325 2.39476 12.4302 1.71835 10.7901Z" stroke="#9CA3AF" stroke-width="2" stroke-linecap="round" stroke-linejoin="round"/>
<path d="M10 13C11.3807 13 12.5 11.8807 12.5 10.5C12.5 9.11929 11.3807 8 10 8C8.61929 8 7.5 9.11929 7.5 10.5C7.5 11.8807 8.61929 13 10 13Z" stroke="#9CA3AF" stroke-width="2" stroke-linecap="round" stroke-linejoin="round"/>
</svg>
