<svg width="25" height="24" viewBox="0 0 25 24" fill="none" xmlns="http://www.w3.org/2000/svg">
<path d="M15.3047 21V13C15.3047 12.7348 15.1993 12.4804 15.0118 12.2929C14.8243 12.1054 14.5699 12 14.3047 12H10.3047C10.0395 12 9.78512 12.1054 9.59758 12.2929C9.41004 12.4804 9.30469 12.7348 9.30469 13V21" stroke="#1E3A8A" stroke-width="2" stroke-linecap="round" stroke-linejoin="round"/>
<path d="M3.30469 9.99997C3.30462 9.70904 3.36802 9.42159 3.49048 9.15768C3.61293 8.89378 3.79149 8.65976 4.01369 8.47197L11.0137 2.47297C11.3747 2.16788 11.832 2.00049 12.3047 2.00049C12.7773 2.00049 13.2347 2.16788 13.5957 2.47297L20.5957 8.47197C20.8179 8.65976 20.9964 8.89378 21.1189 9.15768C21.2414 9.42159 21.3048 9.70904 21.3047 9.99997V19C21.3047 19.5304 21.094 20.0391 20.7189 20.4142C20.3438 20.7893 19.8351 21 19.3047 21H5.30469C4.77425 21 4.26555 20.7893 3.89047 20.4142C3.5154 20.0391 3.30469 19.5304 3.30469 19V9.99997Z" stroke="#1E3A8A" stroke-width="2" stroke-linecap="round" stroke-linejoin="round"/>
</svg>
