<svg width="21" height="20" viewBox="0 0 21 20" fill="none" xmlns="http://www.w3.org/2000/svg">
<path d="M13.0469 17.5V10.8333C13.0469 10.6123 12.9591 10.4004 12.8028 10.2441C12.6465 10.0878 12.4346 10 12.2135 10H8.88021C8.65919 10 8.44723 10.0878 8.29095 10.2441C8.13467 10.4004 8.04688 10.6123 8.04688 10.8333V17.5" stroke="#1E3A8A" stroke-width="2" stroke-linecap="round" stroke-linejoin="round"/>
<path d="M3.04688 8.33335C3.04682 8.0909 3.09965 7.85137 3.2017 7.63144C3.30374 7.41152 3.45254 7.21651 3.63771 7.06001L9.47104 2.06085C9.77186 1.8066 10.153 1.66711 10.5469 1.66711C10.9407 1.66711 11.3219 1.8066 11.6227 2.06085L17.456 7.06001C17.6412 7.21651 17.79 7.41152 17.8921 7.63144C17.9941 7.85137 18.0469 8.0909 18.0469 8.33335V15.8333C18.0469 16.2754 17.8713 16.6993 17.5587 17.0119C17.2462 17.3244 16.8222 17.5 16.3802 17.5H4.71354C4.27151 17.5 3.84759 17.3244 3.53503 17.0119C3.22247 16.6993 3.04688 16.2754 3.04688 15.8333V8.33335Z" stroke="#1E3A8A" stroke-width="2" stroke-linecap="round" stroke-linejoin="round"/>
</svg>
