<svg width="25" height="24" viewBox="0 0 25 24" fill="none" xmlns="http://www.w3.org/2000/svg">
<path d="M16.875 20V4C16.875 3.46957 16.6643 2.96086 16.2892 2.58579C15.9141 2.21071 15.4054 2 14.875 2H10.875C10.3446 2 9.83586 2.21071 9.46079 2.58579C9.08571 2.96086 8.875 3.46957 8.875 4V20" stroke="#9CA3AF" stroke-width="2" stroke-linecap="round" stroke-linejoin="round"/>
<path d="M20.875 6H4.875C3.77043 6 2.875 6.89543 2.875 8V18C2.875 19.1046 3.77043 20 4.875 20H20.875C21.9796 20 22.875 19.1046 22.875 18V8C22.875 6.89543 21.9796 6 20.875 6Z" stroke="#9CA3AF" stroke-width="2" stroke-linecap="round" stroke-linejoin="round"/>
</svg>
