<svg width="20" height="20" viewBox="0 0 20 20" fill="none" xmlns="http://www.w3.org/2000/svg">
<path d="M16.6667 8.33335C16.6667 12.4942 12.0508 16.8275 10.5008 18.1659C10.3564 18.2744 10.1807 18.3331 10 18.3331C9.81934 18.3331 9.64356 18.2744 9.49917 18.1659C7.94917 16.8275 3.33333 12.4942 3.33333 8.33335C3.33333 6.56524 4.03571 4.86955 5.28596 3.61931C6.5362 2.36907 8.23189 1.66669 10 1.66669C11.7681 1.66669 13.4638 2.36907 14.714 3.61931C15.9643 4.86955 16.6667 6.56524 16.6667 8.33335Z" stroke="white" stroke-width="2" stroke-linecap="round" stroke-linejoin="round"/>
<path d="M10 10.8333C11.3807 10.8333 12.5 9.71402 12.5 8.33331C12.5 6.9526 11.3807 5.83331 10 5.83331C8.61929 5.83331 7.5 6.9526 7.5 8.33331C7.5 9.71402 8.61929 10.8333 10 10.8333Z" stroke="white" stroke-width="2" stroke-linecap="round" stroke-linejoin="round"/>
</svg>
