<svg width="21" height="20" viewBox="0 0 21 20" fill="none" xmlns="http://www.w3.org/2000/svg">
<path d="M17.0417 8.33335C17.0417 12.4942 12.4258 16.8275 10.8758 18.1659C10.7314 18.2744 10.5557 18.3331 10.375 18.3331C10.1943 18.3331 10.0186 18.2744 9.87417 18.1659C8.32417 16.8275 3.70833 12.4942 3.70833 8.33335C3.70833 6.56524 4.41071 4.86955 5.66096 3.61931C6.9112 2.36907 8.60689 1.66669 10.375 1.66669C12.1431 1.66669 13.8388 2.36907 15.089 3.61931C16.3393 4.86955 17.0417 6.56524 17.0417 8.33335Z" stroke="#4B5563" stroke-width="2" stroke-linecap="round" stroke-linejoin="round"/>
<path d="M10.375 10.8333C11.7557 10.8333 12.875 9.71402 12.875 8.33331C12.875 6.9526 11.7557 5.83331 10.375 5.83331C8.99429 5.83331 7.875 6.9526 7.875 8.33331C7.875 9.71402 8.99429 10.8333 10.375 10.8333Z" stroke="#4B5563" stroke-width="2" stroke-linecap="round" stroke-linejoin="round"/>
</svg>
