<svg width="21" height="20" viewBox="0 0 21 20" fill="none" xmlns="http://www.w3.org/2000/svg">
<g clip-path="url(#clip0_115_1941)">
<path d="M18.4818 14.1V16.6C18.4827 16.8321 18.4352 17.0618 18.3422 17.2745C18.2492 17.4871 18.1128 17.678 17.9418 17.8349C17.7708 17.9918 17.5689 18.1112 17.349 18.1856C17.1292 18.26 16.8962 18.2876 16.6651 18.2667C14.1008 17.988 11.6376 17.1118 9.47342 15.7083C7.45995 14.4289 5.75287 12.7218 4.47342 10.7083C3.06507 8.53435 2.18862 6.05917 1.91509 3.48334C1.89426 3.2529 1.92165 3.02064 1.99551 2.80136C2.06936 2.58208 2.18806 2.38058 2.34406 2.20969C2.50006 2.0388 2.68993 1.90227 2.90158 1.80878C3.11324 1.71529 3.34204 1.66689 3.57342 1.66668H6.07342C6.47784 1.6627 6.86992 1.80591 7.17656 2.06962C7.4832 2.33333 7.68349 2.69955 7.74009 3.10001C7.84561 3.90006 8.0413 4.68562 8.32342 5.44168C8.43554 5.73995 8.45981 6.0641 8.39334 6.37574C8.32688 6.68738 8.17247 6.97344 7.94842 7.20001L6.89009 8.25834C8.07639 10.3446 9.8038 12.072 11.8901 13.2583L12.9484 12.2C13.175 11.976 13.4611 11.8216 13.7727 11.7551C14.0843 11.6886 14.4085 11.7129 14.7068 11.825C15.4628 12.1071 16.2484 12.3028 17.0484 12.4083C17.4532 12.4655 17.8229 12.6693 18.0872 12.9813C18.3515 13.2932 18.4919 13.6913 18.4818 14.1Z" stroke="white" stroke-width="2" stroke-linecap="round" stroke-linejoin="round"/>
</g>
<defs>
<clipPath id="clip0_115_1941">
<rect width="20" height="20" fill="white" transform="translate(0.148438)"/>
</clipPath>
</defs>
</svg>
