<svg width="21" height="20" viewBox="0 0 21 20" fill="none" xmlns="http://www.w3.org/2000/svg">
<g clip-path="url(#clip0_106_2617)">
<path d="M18.5443 14.1V16.6C18.5452 16.8321 18.4977 17.0618 18.4047 17.2745C18.3117 17.4871 18.1754 17.678 18.0043 17.8349C17.8333 17.9918 17.6314 18.1112 17.4116 18.1856C17.1917 18.26 16.9587 18.2876 16.7276 18.2667C14.1633 17.988 11.7001 17.1118 9.53594 15.7083C7.52246 14.4289 5.81538 12.7218 4.53594 10.7083C3.12759 8.53435 2.25114 6.05917 1.9776 3.48334C1.95678 3.2529 1.98417 3.02064 2.05802 2.80136C2.13188 2.58208 2.25058 2.38058 2.40658 2.20969C2.56257 2.0388 2.75244 1.90227 2.9641 1.80878C3.17575 1.71529 3.40455 1.66689 3.63594 1.66668H6.13594C6.54036 1.6627 6.93243 1.80591 7.23907 2.06962C7.54571 2.33333 7.746 2.69955 7.8026 3.10001C7.90812 3.90006 8.10381 4.68562 8.38594 5.44168C8.49806 5.73995 8.52232 6.0641 8.45586 6.37574C8.3894 6.68738 8.23499 6.97344 8.01094 7.20001L6.9526 8.25834C8.1389 10.3446 9.86632 12.072 11.9526 13.2583L13.0109 12.2C13.2375 11.976 13.5236 11.8216 13.8352 11.7551C14.1468 11.6886 14.471 11.7129 14.7693 11.825C15.5253 12.1071 16.3109 12.3028 17.1109 12.4083C17.5157 12.4655 17.8854 12.6693 18.1497 12.9813C18.414 13.2932 18.5544 13.6913 18.5443 14.1Z" stroke="white" stroke-width="2" stroke-linecap="round" stroke-linejoin="round"/>
</g>
<defs>
<clipPath id="clip0_106_2617">
<rect width="20" height="20" fill="white" transform="translate(0.210938)"/>
</clipPath>
</defs>
</svg>
