<svg width="20" height="20" viewBox="0 0 20 20" fill="none" xmlns="http://www.w3.org/2000/svg">
<g clip-path="url(#clip0_163_138)">
<path d="M11.5266 13.8067C11.6987 13.8858 11.8926 13.9038 12.0764 13.8579C12.2601 13.8121 12.4227 13.7049 12.5375 13.5542L12.8333 13.1667C12.9885 12.9598 13.1898 12.7917 13.4213 12.676C13.6527 12.5603 13.9079 12.5001 14.1666 12.5001H16.6666C17.1087 12.5001 17.5326 12.6757 17.8451 12.9882C18.1577 13.3008 18.3333 13.7247 18.3333 14.1667V16.6667C18.3333 17.1088 18.1577 17.5327 17.8451 17.8453C17.5326 18.1578 17.1087 18.3334 16.6666 18.3334C12.6884 18.3334 8.87307 16.7531 6.06002 13.94C3.24698 11.127 1.66663 7.31166 1.66663 3.33341C1.66663 2.89139 1.84222 2.46746 2.15478 2.1549C2.46734 1.84234 2.89127 1.66675 3.33329 1.66675H5.83329C6.27532 1.66675 6.69924 1.84234 7.0118 2.1549C7.32436 2.46746 7.49996 2.89139 7.49996 3.33341V5.83341C7.49996 6.09216 7.43972 6.34734 7.324 6.57877C7.20829 6.8102 7.04029 7.0115 6.83329 7.16675L6.44329 7.45925C6.29031 7.57606 6.18248 7.74224 6.13812 7.92954C6.09376 8.11684 6.11561 8.31373 6.19996 8.48675C7.33886 10.8 9.21198 12.6707 11.5266 13.8067Z" stroke="black" stroke-width="2" stroke-linecap="round" stroke-linejoin="round"/>
</g>
<defs>
<clipPath id="clip0_163_138">
<rect width="20" height="20" fill="white"/>
</clipPath>
</defs>
</svg>
