<svg width="32" height="33" viewBox="0 0 32 33" fill="none" xmlns="http://www.w3.org/2000/svg">
<path d="M23.7333 26.1L21.3333 15.1667L26 10.5C28 8.5 28.6667 5.83333 28 4.5C26.6667 3.83333 24 4.5 22 6.5L17.3333 11.1667L6.4 8.76667C5.73333 8.63333 5.2 8.9 4.93333 9.43333L4.53333 10.1C4.26667 10.7667 4.4 11.4333 4.93333 11.8333L12 16.5L9.33333 20.5H5.33333L4 21.8333L8 24.5L10.6667 28.5L12 27.1667V23.1667L16 20.5L20.6667 27.5667C21.0667 28.1 21.7333 28.2333 22.4 27.9667L23.0667 27.7C23.6 27.3 23.8667 26.7667 23.7333 26.1Z" stroke="#1E3A8A" stroke-width="2" stroke-linecap="round" stroke-linejoin="round"/>
</svg>
