<svg width="25" height="25" viewBox="0 0 25 25" fill="none" xmlns="http://www.w3.org/2000/svg">
<path d="M18.5954 19.5312L16.7954 11.3312L20.2954 7.83116C21.7954 6.33116 22.2954 4.33116 21.7954 3.33116C20.7954 2.83116 18.7954 3.33116 17.2954 4.83116L13.7954 8.33116L5.59544 6.53116C5.09544 6.43116 4.69544 6.63116 4.49544 7.03116L4.19544 7.53116C3.99544 8.03116 4.09544 8.53116 4.49544 8.83116L9.79544 12.3312L7.79544 15.3312H4.79544L3.79544 16.3312L6.79544 18.3312L8.79544 21.3312L9.79544 20.3312V17.3312L12.7954 15.3312L16.2954 20.6312C16.5954 21.0312 17.0954 21.1312 17.5954 20.9312L18.0954 20.7312C18.4954 20.4312 18.6954 20.0312 18.5954 19.5312Z" stroke="#1E3A8A" stroke-width="2" stroke-linecap="round" stroke-linejoin="round"/>
</svg>
