<svg width="21" height="20" viewBox="0 0 21 20" fill="none" xmlns="http://www.w3.org/2000/svg">
<path d="M10.1042 1.91249C10.1407 1.83871 10.1971 1.7766 10.267 1.73318C10.337 1.68976 10.4177 1.66675 10.5 1.66675C10.5823 1.66675 10.663 1.68976 10.733 1.73318C10.8029 1.7766 10.8593 1.83871 10.8958 1.91249L12.8208 5.81166C12.9476 6.0683 13.1348 6.29033 13.3663 6.4587C13.5979 6.62707 13.8668 6.73675 14.15 6.77833L18.455 7.40833C18.5366 7.42014 18.6132 7.45455 18.6762 7.50766C18.7393 7.56076 18.7862 7.63045 18.8117 7.70883C18.8372 7.78721 18.8402 7.87116 18.8205 7.95119C18.8007 8.03121 18.759 8.10412 18.7 8.16166L15.5867 11.1933C15.3813 11.3934 15.2277 11.6404 15.139 11.913C15.0503 12.1856 15.0292 12.4757 15.0775 12.7583L15.8125 17.0417C15.8269 17.1232 15.8181 17.2071 15.7871 17.2839C15.7561 17.3607 15.7041 17.4272 15.6371 17.4758C15.5701 17.5245 15.4908 17.5533 15.4082 17.5591C15.3256 17.5648 15.2431 17.5472 15.17 17.5083L11.3217 15.485C11.0681 15.3518 10.786 15.2823 10.4996 15.2823C10.2132 15.2823 9.93106 15.3518 9.67749 15.485L5.82999 17.5083C5.75694 17.547 5.67449 17.5644 5.59204 17.5585C5.50958 17.5527 5.43043 17.5238 5.36357 17.4752C5.29672 17.4266 5.24485 17.3601 5.21387 17.2835C5.18289 17.2069 5.17404 17.1231 5.18833 17.0417L5.92249 12.7592C5.97099 12.4764 5.94998 12.1862 5.86128 11.9134C5.77257 11.6406 5.61883 11.3935 5.41333 11.1933L2.29999 8.16249C2.24049 8.10502 2.19832 8.03199 2.1783 7.95172C2.15827 7.87145 2.16119 7.78717 2.18673 7.70848C2.21226 7.6298 2.25938 7.55986 2.32272 7.50665C2.38607 7.45343 2.46308 7.41907 2.54499 7.40749L6.84916 6.77833C7.13271 6.73708 7.40199 6.62754 7.63381 6.45915C7.86564 6.29076 8.05308 6.06855 8.17999 5.81166L10.1042 1.91249Z" stroke="#6B7280" stroke-width="2" stroke-linecap="round" stroke-linejoin="round"/>
</svg>
