<svg width="21" height="20" viewBox="0 0 21 20" fill="none" xmlns="http://www.w3.org/2000/svg">
<g clip-path="url(#clip0_107_3511)">
<path d="M12.2071 18.0716C12.2387 18.1505 12.2938 18.2179 12.3648 18.2646C12.4358 18.3113 12.5194 18.3352 12.6044 18.333C12.6894 18.3308 12.7717 18.3027 12.8403 18.2524C12.9088 18.2021 12.9603 18.1321 12.9879 18.0516L18.4046 2.2183C18.4312 2.14446 18.4363 2.06455 18.4192 1.98793C18.4022 1.9113 18.3636 1.84113 18.3081 1.78561C18.2526 1.7301 18.1824 1.69154 18.1058 1.67446C18.0291 1.65737 17.9492 1.66246 17.8754 1.68913L2.04206 7.1058C1.96164 7.13338 1.89158 7.1849 1.84129 7.25344C1.791 7.32199 1.76287 7.40428 1.7607 7.48926C1.75852 7.57425 1.78239 7.65787 1.82911 7.7289C1.87583 7.79993 1.94316 7.85497 2.02206 7.88663L8.6304 10.5366C8.8393 10.6203 9.02911 10.7453 9.18837 10.9043C9.34763 11.0633 9.47305 11.2529 9.55706 11.4616L12.2071 18.0716Z" stroke="#9CA3AF" stroke-width="2" stroke-linecap="round" stroke-linejoin="round"/>
<path d="M18.3054 1.78906L9.18872 10.9049" stroke="#9CA3AF" stroke-width="2" stroke-linecap="round" stroke-linejoin="round"/>
</g>
<defs>
<clipPath id="clip0_107_3511">
<rect width="20" height="20" fill="white" transform="translate(0.09375)"/>
</clipPath>
</defs>
</svg>
