<?xml version="1.0" encoding="utf-8"?>
<!-- Generator: Adobe Illustrator 27.5.0, SVG Export Plug-In . SVG Version: 6.00 Build 0)  -->
<svg version="1.1" id="Capa_1" xmlns="http://www.w3.org/2000/svg" xmlns:xlink="http://www.w3.org/1999/xlink" x="0px" y="0px"
	 viewBox="0 0 2122 2122" style="enable-background:new 0 0 2122 2122;" xml:space="preserve">
<g>
	<path style="fill:#F09C39;" d="M1943.348,986.555c-14.902-37.473-34.34-75.644-58.387-110.242c-0.039-0.063-0.078-0.121-0.121-0.18
		c-2.766-3.981-5.598-7.902-8.488-11.781c-0.164-0.223-0.328-0.453-0.5-0.68c-2.734-3.648-5.531-7.25-8.375-10.797
		c-0.34-0.43-0.672-0.863-1.02-1.285c-2.668-3.309-5.402-6.555-8.168-9.762c-0.539-0.617-1.059-1.25-1.594-1.871
		c-2.598-2.961-5.254-5.859-7.934-8.73c-0.738-0.789-1.449-1.602-2.195-2.383c-2.543-2.672-5.152-5.269-7.773-7.852
		c-0.898-0.891-1.781-1.816-2.691-2.695c-2.617-2.523-5.309-4.961-8-7.379c-0.941-0.852-1.855-1.738-2.809-2.574
		c-3.645-3.199-7.352-6.313-11.133-9.32c-28.344-22.516-54.527-33.324-78.371-35.059c-0.043-0.141-0.086-0.273-0.133-0.414
		c-0.516-1.637-1.016-3.207-1.512-4.789c-0.367-1.156-0.742-2.336-1.098-3.461c-0.566-1.793-1.121-3.543-1.668-5.266
		c-0.328-1.027-0.656-2.063-0.973-3.067c-0.508-1.59-1.004-3.164-1.496-4.699c-0.336-1.063-0.672-2.109-1.004-3.144
		c-0.488-1.543-0.98-3.078-1.457-4.563c-0.254-0.789-0.5-1.559-0.75-2.336c-0.055-0.16-0.102-0.32-0.152-0.481l-0.004-0.008
		c-0.457-1.426-0.91-2.844-1.359-4.219c-0.188-0.594-0.375-1.168-0.566-1.754c-0.07-0.223-0.141-0.441-0.211-0.66
		c-0.039-0.129-0.086-0.258-0.129-0.387c-0.66-2.047-1.309-4.039-1.938-5.969c-0.063-0.195-0.129-0.387-0.191-0.582
		c-0.613-1.863-1.211-3.68-1.793-5.434c-0.078-0.238-0.156-0.473-0.234-0.707c-0.559-1.691-1.109-3.34-1.645-4.934
		c-0.098-0.289-0.191-0.566-0.289-0.848c-0.137-0.414-0.277-0.836-0.418-1.238c-0.078-0.234-0.156-0.477-0.234-0.711
		c-0.301-0.875-0.594-1.727-0.879-2.574c-0.094-0.266-0.184-0.527-0.277-0.793c-0.082-0.234-0.156-0.465-0.238-0.695
		c-0.105-0.32-0.223-0.645-0.332-0.961c-0.305-0.887-0.605-1.758-0.91-2.617c-0.066-0.215-0.145-0.418-0.219-0.629
		c-0.047-0.133-0.094-0.262-0.137-0.398c-0.137-0.387-0.273-0.77-0.41-1.148c-0.305-0.867-0.613-1.742-0.914-2.578
		c-0.043-0.121-0.09-0.238-0.133-0.363c-0.047-0.141-0.102-0.277-0.145-0.418c-0.133-0.352-0.258-0.699-0.387-1.047
		c-0.395-1.098-0.789-2.18-1.172-3.219c-0.113-0.305-0.227-0.598-0.332-0.887c-0.406-1.09-0.809-2.16-1.203-3.191
		c-0.051-0.133-0.102-0.258-0.148-0.391c-1.852-4.813-3.625-9.148-5.402-13.188c-0.023-0.066-0.055-0.129-0.082-0.191
		c-0.023-0.07-0.059-0.137-0.086-0.203c0-0.008,0-0.012-0.008-0.016c-0.355-0.809-0.715-1.598-1.074-2.387
		c-0.086-0.191-0.176-0.387-0.266-0.578c-0.059-0.125-0.109-0.258-0.168-0.383c-0.324-0.688-0.645-1.371-0.965-2.047
		c-0.098-0.203-0.195-0.41-0.289-0.609c-0.098-0.195-0.184-0.391-0.277-0.578c-0.293-0.605-0.59-1.211-0.883-1.809
		c-0.102-0.199-0.203-0.402-0.301-0.605c-0.117-0.238-0.238-0.481-0.359-0.719c-0.277-0.555-0.563-1.113-0.844-1.664
		c-0.094-0.172-0.188-0.348-0.277-0.527c-0.156-0.305-0.313-0.609-0.469-0.914c-0.27-0.504-0.535-1.016-0.809-1.523
		c-0.023-0.043-0.055-0.094-0.078-0.141c-0.066-0.137-0.145-0.273-0.223-0.414c-0.176-0.328-0.352-0.66-0.527-0.984
		c-0.371-0.672-0.742-1.352-1.109-2.023c-0.203-0.356-0.402-0.715-0.605-1.07c-0.367-0.66-0.742-1.316-1.121-1.981
		c-0.211-0.363-0.422-0.734-0.637-1.105c-0.391-0.672-0.785-1.348-1.184-2.031c-0.211-0.356-0.43-0.719-0.641-1.082
		c-0.414-0.691-0.828-1.387-1.25-2.094c-0.23-0.387-0.473-0.773-0.707-1.16c-0.418-0.695-0.844-1.398-1.281-2.109
		c-0.25-0.402-0.508-0.824-0.762-1.238c-0.441-0.711-0.887-1.43-1.344-2.168c-0.309-0.492-0.629-1.008-0.945-1.508
		c-0.406-0.648-0.805-1.293-1.219-1.957c-0.398-0.633-0.816-1.293-1.227-1.941c-0.395-0.625-0.785-1.242-1.188-1.883
		c-0.367-0.578-0.754-1.184-1.133-1.777c-0.453-0.723-0.902-1.426-1.375-2.168c-0.836-1.324-1.707-2.688-2.602-4.094
		c-2.148-3.379-4.426-6.688-6.801-9.934c-0.773-1.051-1.617-2.059-2.41-3.101c-1.652-2.164-3.309-4.328-5.063-6.426
		c-0.988-1.18-2.043-2.32-3.055-3.484c-1.656-1.895-3.313-3.793-5.047-5.633c-1.125-1.188-2.301-2.34-3.449-3.504
		c-1.73-1.754-3.469-3.504-5.266-5.203c-1.215-1.145-2.469-2.254-3.715-3.379c-1.84-1.656-3.691-3.309-5.594-4.918
		c-1.281-1.078-2.582-2.129-3.887-3.188c-1.969-1.586-3.957-3.16-5.988-4.699c-1.32-1-2.656-1.98-4-2.953
		c-2.109-1.535-4.246-3.039-6.422-4.519c-1.336-0.906-2.68-1.809-4.039-2.695c-2.27-1.488-4.578-2.938-6.918-4.367
		c-1.324-0.813-2.648-1.621-3.996-2.41c-2.469-1.453-4.973-2.863-7.508-4.25c-1.27-0.699-2.543-1.406-3.828-2.09
		c-2.707-1.438-5.461-2.816-8.234-4.176c-1.172-0.578-2.328-1.168-3.516-1.734c-3.031-1.441-6.117-2.82-9.219-4.18
		c-0.969-0.422-1.918-0.867-2.895-1.281c-3.59-1.527-7.23-2.992-10.898-4.402c-0.52-0.203-1.039-0.422-1.559-0.621
		c-12.918-4.898-26.305-9.102-40.023-12.578c-0.395-0.102-0.789-0.188-1.184-0.281c-4.074-1.02-8.172-1.984-12.293-2.875
		c-0.215-0.051-0.418-0.105-0.629-0.148c0.02,0.012,0.035,0.02,0.055,0.031c-42.363-9.098-87.309-11.508-130.699-6.855
		c-0.023,0.004-0.051,0.004-0.074,0.004c-2.684,0.293-5.352,0.637-8.027,0.98c-1.512,0.195-3.023,0.375-4.527,0.582
		c-2.32,0.328-4.629,0.688-6.938,1.059c-1.891,0.297-3.77,0.605-5.641,0.926c-2.082,0.367-4.148,0.742-6.207,1.141
		c-2.16,0.41-4.305,0.848-6.441,1.297c-1.832,0.383-3.66,0.762-5.477,1.18c-2.523,0.566-5.027,1.184-7.527,1.805
		c-1.453,0.363-2.91,0.703-4.348,1.082c-3.949,1.039-7.875,2.129-11.766,3.305c-47.625-35.172-109.203-57.105-186.855-58.66
		c-22.082-0.438-46.246,0.074-71.773,1.594c-0.461,0.027-0.922,0.051-1.383,0.082c-2.469,0.145-4.949,0.313-7.438,0.477
		c-0.676,0.051-1.348,0.094-2.02,0.141c-2.414,0.168-4.844,0.348-7.277,0.531c-0.742,0.059-1.484,0.113-2.231,0.172
		c-2.41,0.191-4.832,0.391-7.262,0.594c-0.766,0.063-1.535,0.133-2.305,0.199c-2.469,0.215-4.945,0.441-7.434,0.672
		c-0.637,0.059-1.273,0.125-1.91,0.184c-2.629,0.25-5.266,0.504-7.914,0.777c-0.258,0.031-0.516,0.059-0.777,0.082
		c-11.887,1.23-23.957,2.66-36.156,4.309c-0.699,0.094-1.394,0.184-2.094,0.277c-2.445,0.336-4.898,0.688-7.352,1.039
		c-0.988,0.141-1.977,0.277-2.965,0.422c-2.32,0.336-4.641,0.688-6.965,1.039c-1.125,0.168-2.246,0.34-3.371,0.516
		c-2.285,0.355-4.57,0.715-6.859,1.082c-1.152,0.184-2.309,0.375-3.465,0.566c-2.27,0.375-4.543,0.75-6.816,1.133
		c-1.156,0.199-2.313,0.398-3.469,0.602c-2.316,0.402-4.633,0.801-6.957,1.223c-1.004,0.18-2.012,0.367-3.016,0.551
		c-2.473,0.453-4.945,0.906-7.422,1.371c-0.336,0.066-0.672,0.133-1.008,0.195c-6.211,1.18-12.422,2.414-18.637,3.703
		c-0.113,0.023-0.227,0.051-0.344,0.074c-2.309,0.477-4.613,0.98-6.926,1.477c-1.195,0.254-2.387,0.504-3.582,0.77
		c-2.137,0.461-4.269,0.945-6.402,1.426c-1.379,0.309-2.758,0.613-4.137,0.93c-2.039,0.469-4.07,0.945-6.109,1.426
		c-1.477,0.348-2.953,0.695-4.43,1.051c-1.973,0.473-3.941,0.957-5.914,1.441c-1.539,0.383-3.082,0.762-4.621,1.152
		c-1.922,0.48-3.84,0.969-5.762,1.461c-1.578,0.41-3.152,0.816-4.727,1.23c-1.895,0.504-3.789,1-5.684,1.512
		c-1.578,0.422-3.156,0.863-4.731,1.293c-1.879,0.52-3.766,1.031-5.641,1.559c-1.621,0.457-3.238,0.93-4.859,1.391
		c-1.813,0.523-3.633,1.039-5.441,1.57c-3.266,0.961-6.52,1.934-9.766,2.93c-1.629,0.5-3.246,1.016-4.875,1.523
		c-1.793,0.559-3.59,1.121-5.375,1.691c-1.656,0.531-3.301,1.07-4.953,1.613c-1.734,0.563-3.473,1.129-5.207,1.707
		c-1.652,0.551-3.293,1.117-4.938,1.676c-1.723,0.586-3.449,1.176-5.164,1.773c-1.629,0.57-3.246,1.141-4.863,1.723
		c-1.727,0.613-3.445,1.227-5.16,1.852c-1.598,0.582-3.195,1.168-4.789,1.762c-1.734,0.645-3.461,1.297-5.184,1.953
		c-1.539,0.586-3.082,1.172-4.609,1.766c-1.805,0.695-3.594,1.406-5.387,2.117c-1.441,0.578-2.891,1.145-4.328,1.727
		c-1.922,0.777-3.824,1.574-5.727,2.363c-1.297,0.539-2.598,1.066-3.883,1.613c-2.941,1.242-5.867,2.508-8.773,3.789
		c-0.922,0.406-1.836,0.82-2.754,1.234c-2.367,1.051-4.727,2.113-7.066,3.195c-1.227,0.563-2.438,1.144-3.66,1.719
		c-1.809,0.848-3.621,1.699-5.414,2.563c-0.106,0.055-0.211,0.102-0.313,0.152c-1.234,0.594-2.449,1.203-3.672,1.801
		c-1.559,0.766-3.117,1.531-4.66,2.309c-0.285,0.145-0.566,0.289-0.848,0.43c-1.211,0.613-2.406,1.234-3.606,1.852
		c-1.352,0.695-2.707,1.395-4.051,2.102c-0.449,0.234-0.898,0.477-1.348,0.715c-1.168,0.617-2.328,1.242-3.488,1.867
		c-1.176,0.637-2.355,1.269-3.523,1.914c-0.605,0.336-1.203,0.672-1.809,1.008c-1.113,0.617-2.227,1.238-3.328,1.867
		c-1.02,0.574-2.035,1.152-3.047,1.734c-0.77,0.441-1.535,0.894-2.301,1.34c-1.043,0.609-2.086,1.211-3.121,1.824
		c-0.871,0.519-1.731,1.039-2.598,1.563c-0.918,0.555-1.828,1.113-2.742,1.676c-0.981,0.598-1.969,1.192-2.941,1.797
		c-0.723,0.453-1.441,0.914-2.16,1.367c-0.969,0.609-1.922,1.23-2.875,1.844c-0.481,0.313-0.965,0.613-1.441,0.926
		c-0.527,0.34-1.07,0.676-1.598,1.023c-0.59,0.383-1.168,0.785-1.758,1.172c-0.976,0.648-1.941,1.308-2.91,1.961
		c-1.051,0.711-2.113,1.41-3.152,2.129c-0.539,0.371-1.063,0.75-1.598,1.121c-0.922,0.641-1.828,1.289-2.734,1.934
		c-1.113,0.789-2.231,1.578-3.324,2.375c-0.547,0.395-1.09,0.797-1.629,1.195c-0.781,0.57-1.547,1.156-2.32,1.731
		c-1.172,0.875-2.34,1.754-3.496,2.641c-0.547,0.418-1.098,0.836-1.645,1.262c-0.644,0.5-1.277,1.012-1.914,1.519
		c-1.23,0.969-2.449,1.938-3.656,2.918c-0.551,0.449-1.117,0.891-1.664,1.344c-0.512,0.422-1.004,0.848-1.516,1.273
		c-1.269,1.063-2.531,2.129-3.777,3.199c-0.488,0.422-0.984,0.824-1.465,1.242c-0.492,0.43-0.961,0.863-1.449,1.293
		c-1.184,1.043-2.355,2.098-3.516,3.156c-0.625,0.57-1.266,1.129-1.883,1.707c-0.422,0.387-0.828,0.781-1.242,1.172
		c-1.043,0.977-2.063,1.961-3.082,2.945c-0.723,0.699-1.453,1.391-2.168,2.094c-0.371,0.371-0.742,0.734-1.113,1.102
		c-0.906,0.91-1.793,1.832-2.684,2.746c-0.809,0.832-1.625,1.668-2.422,2.504c-0.328,0.352-0.672,0.691-0.996,1.043
		c-0.785,0.832-1.531,1.68-2.297,2.52c-0.824,0.906-1.652,1.808-2.461,2.719c-0.348,0.391-0.707,0.781-1.055,1.176
		c-0.395,0.453-0.766,0.914-1.16,1.367c-0.266,0.309-0.523,0.617-0.785,0.93c-0.793,0.926-1.59,1.852-2.363,2.789
		c-0.402,0.492-0.813,0.977-1.211,1.465c-0.598,0.734-1.168,1.48-1.754,2.223c-0.715,0.895-1.434,1.793-2.133,2.695
		c-0.453,0.594-0.906,1.191-1.352,1.785c-0.594,0.785-1.172,1.586-1.75,2.375c-0.574,0.785-1.156,1.559-1.715,2.348
		c-0.504,0.707-0.992,1.418-1.484,2.129c-0.582,0.836-1.152,1.676-1.715,2.519c-0.449,0.656-0.902,1.316-1.34,1.981
		c-0.551,0.84-1.074,1.683-1.609,2.523c-0.555,0.875-1.105,1.742-1.645,2.617c-0.332,0.543-0.676,1.082-1.004,1.625
		c-0.594,0.984-1.148,1.98-1.723,2.969c-0.516,0.895-1.039,1.781-1.539,2.676c-0.234,0.418-0.477,0.832-0.703,1.254
		c-0.633,1.152-1.231,2.328-1.836,3.496c-0.469,0.891-0.949,1.777-1.398,2.68c-0.145,0.277-0.289,0.555-0.43,0.832
		c-0.711,1.445-1.375,2.91-2.051,4.367c-0.367,0.789-0.758,1.563-1.109,2.359c-0.063,0.145-0.133,0.285-0.199,0.434
		c-1.063,2.402-2.082,4.828-3.039,7.277c-1.887,4.809-3.578,9.691-5.18,14.606c-0.211,0.648-0.406,1.297-0.609,1.945
		c-1.512,4.762-2.898,9.57-4.152,14.422c-0.008,0.008-0.012,0.023-0.016,0.039c-71.906,9.074-145.477,44.406-202.477,93.668
		c0.004-0.008,0.012-0.012,0.016-0.023c-0.074,0.063-0.148,0.133-0.223,0.199c-3.227,2.793-6.383,5.637-9.496,8.516
		c-0.363,0.34-0.738,0.66-1.102,0.996c-3.203,2.98-6.332,6.016-9.41,9.086c-0.258,0.258-0.527,0.508-0.785,0.766
		c-3.121,3.133-6.164,6.309-9.145,9.523c-0.203,0.219-0.414,0.43-0.613,0.648c-2.992,3.242-5.898,6.523-8.742,9.848
		c-0.18,0.203-0.367,0.41-0.547,0.617c-2.832,3.324-5.578,6.695-8.258,10.098c-0.168,0.211-0.348,0.422-0.516,0.637
		c-2.625,3.348-5.156,6.738-7.617,10.152c-0.203,0.285-0.426,0.555-0.625,0.84c-2.406,3.359-4.715,6.758-6.957,10.172
		c-0.234,0.352-0.48,0.691-0.711,1.043c-2.156,3.313-4.207,6.66-6.203,10.027c-0.281,0.465-0.59,0.93-0.867,1.402
		c-1.898,3.246-3.688,6.52-5.438,9.801c-0.32,0.605-0.68,1.203-0.996,1.813c-1.656,3.18-3.195,6.379-4.707,9.59
		c-0.344,0.73-0.727,1.453-1.063,2.184c-1.406,3.074-2.695,6.172-3.965,9.269c-0.359,0.887-0.77,1.758-1.117,2.645
		c-1.176,2.984-2.227,5.984-3.266,8.984c-0.355,1.023-0.762,2.031-1.098,3.051c-0.961,2.906-1.789,5.828-2.617,8.746
		c-0.32,1.137-0.703,2.262-1.008,3.395c-0.758,2.855-1.375,5.73-2.008,8.602c-0.266,1.207-0.598,2.41-0.84,3.617
		c-0.582,2.91-1.016,5.828-1.465,8.742c-0.18,1.184-0.43,2.363-0.586,3.547c-0.551,4.098-0.965,8.211-1.23,12.32
		c-0.117,1.742-0.227,3.418-0.332,5.047c-0.012,0.195-0.023,0.371-0.035,0.566c-0.086,1.363-0.176,2.711-0.254,4.012
		c-0.039,0.598-0.074,1.172-0.109,1.758c-0.055,0.891-0.113,1.789-0.164,2.648c-0.043,0.746-0.086,1.469-0.129,2.188
		c-0.035,0.645-0.074,1.293-0.109,1.922c-0.039,0.766-0.078,1.508-0.117,2.258c-0.031,0.605-0.066,1.215-0.094,1.809
		c-0.031,0.668-0.063,1.324-0.09,1.984c-0.004,0.035-0.004,0.063-0.004,0.098c-0.004,0.02-0.004,0.043-0.004,0.066
		c-0.027,0.551-0.051,1.113-0.074,1.652c-0.027,0.723-0.051,1.434-0.078,2.141c-0.02,0.539-0.039,1.086-0.055,1.617
		c-0.02,0.688-0.039,1.363-0.055,2.035c-0.012,0.516-0.023,1.027-0.031,1.535c-0.016,0.711-0.027,1.418-0.035,2.113
		c-0.004,0.457-0.004,0.91-0.012,1.363c0,0.719-0.004,1.434,0,2.145c0,0.453,0.004,0.902,0.008,1.355c0,0.047,0,0.102,0.004,0.156
		c0,0.125,0,0.25,0,0.375c0.008,0.52,0.016,1.047,0.023,1.57c0.012,0.398,0.02,0.801,0.031,1.203c0,0.195,0.004,0.395,0.012,0.59
		c0.016,0.559,0.031,1.125,0.051,1.688c0.012,0.332,0.027,0.66,0.039,0.992c0.008,0.219,0.02,0.438,0.027,0.656
		c0.027,0.617,0.055,1.242,0.086,1.871c0.012,0.258,0.027,0.52,0.043,0.777c0.012,0.227,0.027,0.453,0.039,0.68
		c0.043,0.707,0.086,1.41,0.133,2.129c0.012,0.184,0.027,0.375,0.043,0.566c0.012,0.191,0.027,0.398,0.043,0.598
		c0.059,0.816,0.121,1.633,0.191,2.465c0.023,0.297,0.055,0.598,0.082,0.902c0.082,0.945,0.168,1.891,0.266,2.859
		c0.004,0.047,0.008,0.094,0.012,0.141c0.344,3.414,0.777,7.02,1.305,10.875c0.016,0.113,0.027,0.215,0.043,0.324
		c0.156,1.129,0.32,2.285,0.492,3.461c0.039,0.262,0.074,0.52,0.113,0.789c0.039,0.289,0.078,0.563,0.125,0.848
		c0.125,0.859,0.266,1.75,0.402,2.633c0.051,0.324,0.102,0.648,0.152,0.977c0.059,0.383,0.113,0.75,0.176,1.133
		c0.129,0.836,0.273,1.699,0.414,2.563c0.055,0.332,0.109,0.668,0.164,1.004c0.078,0.48,0.152,0.953,0.238,1.445
		c0.137,0.824,0.277,1.66,0.422,2.508c0.055,0.324,0.113,0.656,0.168,0.98c0.004,0.016,0.004,0.035,0.008,0.055
		c0.109,0.617,0.211,1.23,0.32,1.859c0.137,0.785,0.273,1.586,0.418,2.387c0.023,0.125,0.047,0.262,0.07,0.383
		c0.043,0.254,0.09,0.516,0.133,0.773c0.129,0.73,0.262,1.457,0.395,2.207c0.215,1.207,0.441,2.461,0.672,3.719
		c0.141,0.773,0.285,1.559,0.43,2.352c0.234,1.273,0.481,2.582,0.727,3.914c0.16,0.855,0.324,1.734,0.488,2.613
		c0.254,1.367,0.52,2.758,0.789,4.184c0.16,0.848,0.328,1.707,0.492,2.582c0.012,0.063,0.023,0.121,0.035,0.184
		c0.055,0.289,0.105,0.566,0.16,0.852c0.234,1.219,0.473,2.465,0.715,3.723c0.137,0.703,0.277,1.422,0.414,2.141
		c0.082,0.426,0.164,0.852,0.246,1.281c0.285,1.461,0.574,2.953,0.867,4.461c0.098,0.488,0.191,0.988,0.289,1.48
		c0.117,0.605,0.238,1.223,0.355,1.844c0.313,1.586,0.629,3.207,0.953,4.855c0.059,0.309,0.121,0.621,0.18,0.926
		c0.156,0.797,0.32,1.609,0.477,2.418c0.352,1.801,0.711,3.625,1.082,5.5c0.027,0.133,0.055,0.27,0.082,0.398
		c0.188,0.957,0.379,1.949,0.574,2.918c0.363,1.859,0.73,3.715,1.113,5.641c0.012,0.063,0.023,0.121,0.035,0.184
		c-20.078,12.98-37.848,35.035-51.891,68.402c-1.871,4.453-3.629,8.969-5.289,13.535c-0.414,1.137-0.769,2.301-1.172,3.441
		c-1.215,3.473-2.422,6.957-3.523,10.484c-0.359,1.16-0.676,2.336-1.023,3.508c-1.074,3.574-2.129,7.156-3.09,10.781
		c-0.258,0.988-0.484,1.992-0.738,2.98c-0.984,3.859-1.934,7.727-2.801,11.629c-0.164,0.762-0.309,1.523-0.469,2.281
		c-0.898,4.188-1.746,8.387-2.508,12.609c-0.09,0.508-0.168,1.012-0.254,1.52c-0.797,4.508-1.523,9.027-2.172,13.574
		c-0.039,0.277-0.074,0.555-0.113,0.828c-0.668,4.781-1.262,9.574-1.777,14.383c-0.012,0.105-0.02,0.211-0.031,0.313
		c-0.527,4.965-0.977,9.933-1.344,14.918c0,0.008,0,0.02,0,0.027l0,0c-2.738,37.055-1.227,74.477,3.121,109.727
		c13.07,106.027,81.934,274.207,203.84,197.195l0,0c0.004,0,0.012-0.004,0.02-0.012c1.469-0.93,2.949-1.898,4.434-2.902
		c0.375-0.246,0.75-0.508,1.125-0.758c1.281-0.879,2.566-1.773,3.859-2.707c0.793-0.563,1.59-1.164,2.387-1.754
		c0.969-0.715,1.934-1.422,2.91-2.172c1.867-1.434,3.742-2.91,5.633-4.457c16.09-13.184,35.52-29.48,55.207-47.73
		c-0.004,0.012-0.012,0.027-0.016,0.043c0.73-0.68,1.461-1.375,2.195-2.063c1.195-1.113,2.387-2.227,3.586-3.359
		c2.805-2.652,5.609-5.336,8.402-8.059c0.883-0.863,1.758-1.742,2.641-2.609c2.285-2.25,4.559-4.523,6.82-6.82
		c0.926-0.941,1.852-1.875,2.773-2.82c2.859-2.938,5.691-5.906,8.492-8.906c0.793-0.852,1.574-1.711,2.363-2.566
		c2.324-2.523,4.621-5.074,6.891-7.637c0.734-0.832,1.477-1.648,2.203-2.484c2.723-3.121,5.391-6.27,8.004-9.441
		c0.738-0.895,1.457-1.797,2.188-2.695c2.215-2.73,4.379-5.48,6.492-8.238c0.543-0.711,1.105-1.41,1.641-2.125
		c2.449-3.254,4.809-6.523,7.098-9.805c0.652-0.938,1.285-1.871,1.922-2.809c2.02-2.965,3.969-5.938,5.836-8.918
		c0.324-0.52,0.668-1.035,0.988-1.551c2.063-3.352,3.984-6.707,5.828-10.074c0.516-0.941,1.019-1.883,1.516-2.82
		c1.754-3.324,3.43-6.648,4.953-9.977c0.059-0.137,0.141-0.27,0.199-0.406c0.023,0.008,0.047,0.012,0.066,0.023
		c4.492,1.586,8.93,2.996,13.336,4.266c0.731,0.211,1.461,0.426,2.191,0.629c2.098,0.582,4.191,1.137,6.273,1.648
		c0.473,0.117,0.941,0.215,1.414,0.324c3.895,0.926,7.773,1.723,11.625,2.398c0.77,0.133,1.539,0.277,2.305,0.398
		c1.977,0.324,3.949,0.617,5.914,0.867c0.762,0.098,1.52,0.176,2.273,0.266c3.492,0.41,6.977,0.711,10.445,0.91
		c0.859,0.047,1.723,0.105,2.578,0.145c1.859,0.078,3.719,0.129,5.57,0.145c0.973,0.012,1.949,0,2.918-0.008
		c3.149-0.023,6.293-0.129,9.43-0.32c1.027-0.063,2.055-0.113,3.082-0.195c1.746-0.137,3.492-0.305,5.238-0.496
		c1.164-0.133,2.332-0.277,3.5-0.43c2.707-0.352,5.418-0.766,8.129-1.238c1.379-0.242,2.754-0.473,4.137-0.75
		c1.617-0.32,3.242-0.676,4.863-1.043c1.375-0.305,2.754-0.641,4.133-0.984c1.762-0.434,3.527-0.875,5.293-1.363
		c2.297-0.633,4.598-1.305,6.902-2.02c1.488-0.469,2.977-0.965,4.469-1.469c1.605-0.535,3.219-1.094,4.832-1.676
		c1.402-0.5,2.809-1,4.219-1.535c2.68-1.012,5.371-2.086,8.07-3.215c1.324-0.551,2.656-1.141,3.988-1.715
		c1.883-0.824,3.777-1.672,5.68-2.543c1.277-0.59,2.555-1.168,3.84-1.785c2.883-1.367,5.781-2.793,8.703-4.289
		c1.106-0.566,2.227-1.172,3.336-1.75c2.234-1.176,4.477-2.379,6.738-3.617c1.156-0.637,2.316-1.27,3.48-1.922
		c3.121-1.754,6.266-3.563,9.445-5.449c0.824-0.492,1.66-1.008,2.488-1.504c2.66-1.602,5.344-3.246,8.047-4.938
		c1.051-0.66,2.106-1.32,3.168-1.992c3.395-2.156,6.813-4.359,10.281-6.66c0.445-0.297,0.906-0.613,1.359-0.91
		c3.188-2.125,6.414-4.317,9.664-6.559c0.984-0.676,1.973-1.359,2.961-2.047c3.672-2.551,7.367-5.148,11.125-7.848
		c15.449-11.098,29.75-21.816,42.941-32.297c0,0,0.004,0,0.008,0.004c4.547,1.926,9.164,3.754,13.871,5.457
		c0.035,0.016,0.063,0.027,0.098,0.035c4.434,1.609,8.941,3.113,13.523,4.516c0.371,0.113,0.727,0.246,1.098,0.355
		c4.203,1.27,8.488,2.426,12.82,3.52c0.734,0.184,1.445,0.402,2.184,0.582c4.984,1.215,10.047,2.324,15.207,3.297
		c4.004,0.75,8.121,1.426,12.328,2.031c1.395,0.199,2.856,0.344,4.273,0.531c2.848,0.367,5.688,0.75,8.617,1.055
		c1.777,0.188,3.621,0.313,5.426,0.48c2.648,0.23,5.277,0.484,7.981,0.672c2.008,0.137,4.07,0.223,6.105,0.336
		c2.582,0.137,5.152,0.293,7.781,0.383c2.168,0.082,4.387,0.113,6.582,0.16c2.563,0.055,5.117,0.125,7.719,0.137
		c2.328,0.016,4.695-0.012,7.055-0.031c2.527-0.019,5.047-0.031,7.605-0.086c2.48-0.051,4.992-0.148,7.5-0.242
		c2.492-0.086,4.973-0.172,7.488-0.293c2.621-0.125,5.27-0.293,7.918-0.453c2.441-0.148,4.879-0.301,7.34-0.48
		c2.762-0.207,5.543-0.445,8.328-0.688c2.375-0.207,4.746-0.414,7.137-0.648c2.918-0.289,5.852-0.605,8.793-0.93
		c2.269-0.258,4.543-0.512,6.824-0.789c3.074-0.375,6.152-0.781,9.242-1.199c2.172-0.293,4.34-0.59,6.519-0.906
		c3.219-0.469,6.441-0.961,9.676-1.477c2.043-0.32,4.086-0.656,6.137-1c3.379-0.563,6.754-1.16,10.141-1.777
		c1.895-0.34,3.785-0.695,5.68-1.059c3.547-0.676,7.09-1.371,10.637-2.102c1.707-0.352,3.422-0.719,5.133-1.082
		c3.723-0.797,7.445-1.613,11.168-2.465c1.5-0.348,2.996-0.703,4.492-1.055c3.922-0.926,7.832-1.875,11.746-2.867
		c1.246-0.32,2.488-0.645,3.734-0.973c4.145-1.07,8.273-2.172,12.391-3.316c0.949-0.262,1.895-0.539,2.848-0.809
		c4.387-1.242,8.762-2.516,13.113-3.84c0.602-0.184,1.188-0.375,1.789-0.555c4.688-1.441,9.348-2.918,13.977-4.453
		c0.141-0.051,0.285-0.098,0.43-0.145c72.863-24.195,138.063-59.902,174.492-104.883c3.145-3.879,6.168-7.766,9.145-11.66
		c0.883-1.152,1.746-2.309,2.613-3.461c1.145-1.523,2.309-3.047,3.426-4.57c16.219,2.762,33.449,5.215,51.828,7.469
		c4.59,0.559,9.082,1.063,13.52,1.539c1.207,0.125,2.406,0.254,3.602,0.375c3.895,0.398,7.75,0.766,11.539,1.094
		c0.57,0.051,1.152,0.109,1.723,0.156c4.129,0.348,8.18,0.641,12.188,0.898c1.27,0.078,2.52,0.152,3.766,0.223
		c3.164,0.188,6.281,0.336,9.355,0.465c0.984,0.039,1.992,0.09,2.973,0.125c3.68,0.129,7.293,0.199,10.859,0.238
		c1.359,0.016,2.699,0.012,4.043,0.016c2.543,0,5.066-0.023,7.563-0.066c1.277-0.027,2.563-0.035,3.828-0.07
		c3.266-0.094,6.48-0.234,9.652-0.414c1.449-0.082,2.867-0.191,4.289-0.289c2.07-0.145,4.109-0.309,6.141-0.496
		c1.453-0.129,2.914-0.258,4.348-0.41c2.902-0.305,5.77-0.656,8.594-1.051c1.516-0.215,3.008-0.457,4.504-0.691
		c1.668-0.27,3.332-0.547,4.984-0.844c1.559-0.281,3.121-0.559,4.656-0.871c2.313-0.469,4.598-0.969,6.863-1.504
		c1.844-0.434,3.66-0.906,5.469-1.387c1.363-0.359,2.719-0.727,4.063-1.113c1.609-0.461,3.211-0.934,4.789-1.43
		c1.309-0.414,2.602-0.859,3.898-1.301c2.645-0.898,5.25-1.852,7.828-2.855c1.082-0.426,2.164-0.852,3.242-1.293
		c1.625-0.676,3.242-1.367,4.848-2.086c0.934-0.418,1.848-0.867,2.773-1.301c2.855-1.344,5.672-2.77,8.449-4.266
		c0.848-0.457,1.699-0.91,2.543-1.383c1.625-0.91,3.234-1.848,4.824-2.809c0.734-0.445,1.461-0.906,2.188-1.367
		c2.941-1.836,5.852-3.773,8.715-5.805c0.625-0.445,1.258-0.879,1.879-1.332c1.602-1.168,3.195-2.371,4.773-3.605
		c0.609-0.477,1.223-0.973,1.832-1.461c3.035-2.426,6.035-4.973,9-7.645c0.375-0.34,0.758-0.672,1.129-1.012
		c1.574-1.445,3.133-2.93,4.688-4.441c0.559-0.539,1.109-1.094,1.664-1.645c3.207-3.191,6.383-6.516,9.52-10.02
		c0.047-0.051,0.098-0.102,0.145-0.152c0.121,0.09,0.25,0.168,0.367,0.258c2.93,2.191,6.004,4.301,9.141,6.371
		c0.891,0.586,1.777,1.168,2.68,1.746c3.242,2.062,6.543,4.086,9.953,6.035c0.527,0.297,1.074,0.578,1.605,0.875
		c3.066,1.723,6.215,3.391,9.418,5.031c1.004,0.512,2.012,1.027,3.027,1.531c3.586,1.781,7.223,3.52,10.938,5.191
		c0.809,0.371,1.645,0.715,2.461,1.082c3.172,1.398,6.383,2.762,9.625,4.086c1.086,0.449,2.168,0.898,3.262,1.336
		c3.797,1.516,7.637,2.992,11.504,4.414c1.07,0.395,2.152,0.77,3.234,1.16c3.156,1.133,6.336,2.238,9.527,3.317
		c1.156,0.394,2.313,0.789,3.477,1.176c3.855,1.27,7.723,2.504,11.602,3.691c1.32,0.406,2.629,0.793,3.949,1.188
		c3.012,0.902,6.02,1.785,9.023,2.637c1.254,0.355,2.512,0.727,3.762,1.074c3.727,1.035,7.441,2.035,11.137,3.004
		c1.629,0.426,3.242,0.832,4.855,1.246c0.953,0.246,1.914,0.504,2.867,0.742c-0.008-0.012-0.023-0.02-0.039-0.031
		c26.039,6.547,50.902,11.504,71.352,15.336c4.16,0.777,8.172,1.383,12.102,1.898c0.406,0.047,0.816,0.113,1.215,0.16
		c3.977,0.496,7.84,0.863,11.59,1.098c0.016,0,0.035,0.004,0.055,0.004l-0.004-0.004
		C2003.25,1266.406,1982.832,1085.82,1943.348,986.555z M1434.867,835.445c0,0.098,0,0.195,0,0.293
		c-0.004-0.332-0.016-0.656-0.023-0.988C1434.848,834.984,1434.855,835.219,1434.867,835.445z M1412.934,683.445
		c1.293,4.125,2.527,8.269,3.703,12.445C1415.461,691.715,1414.227,687.57,1412.934,683.445z M1417.754,700.012
		c0.938,3.457,1.828,6.93,2.68,10.414C1419.582,706.941,1418.691,703.469,1417.754,700.012z M1421.313,713.973
		c1.027,4.375,1.988,8.766,2.895,13.18C1423.305,722.738,1422.34,718.348,1421.313,713.973z M1424.973,731.008
		c0.758,3.863,1.477,7.742,2.137,11.633C1426.449,738.75,1425.73,734.871,1424.973,731.008z M1427.566,745.246
		c0.758,4.57,1.434,9.164,2.063,13.762C1429.004,754.41,1428.324,749.816,1427.566,745.246z M1430.105,762.66
		c0.555,4.305,1.066,8.621,1.516,12.949C1431.172,771.281,1430.66,766.965,1430.105,762.66z M1431.773,777.027
		c0.473,4.723,0.863,9.465,1.207,14.199C1432.637,786.492,1432.246,781.75,1431.773,777.027z M1433.215,794.723
		c0.316,4.793,0.59,9.586,0.773,14.383C1433.805,804.309,1433.531,799.512,1433.215,794.723z M685.836,1280.535
		c-0.008-0.012-0.016-0.02-0.023-0.031c0.031,0.039,0.066,0.074,0.094,0.113c-0.016-0.019-0.031-0.035-0.047-0.055
		C685.852,1280.555,685.844,1280.543,685.836,1280.535z M594.871,1131.371c0.867,1.875,1.746,3.758,2.633,5.637
		C596.617,1135.129,595.738,1133.246,594.871,1131.371z M600.094,1142.488c0.832,1.746,1.676,3.496,2.523,5.238
		C601.769,1145.984,600.926,1144.234,600.094,1142.488z M605.441,1153.543c0.754,1.535,1.531,3.074,2.297,4.609
		C606.973,1156.617,606.199,1155.078,605.441,1153.543z M620.273,1182.344c0.074,0.137,0.148,0.277,0.223,0.414
		c0.012,0.02,0.016,0.031,0.027,0.051l0,0C620.441,1182.656,620.359,1182.5,620.273,1182.344z M592.519,1126.266
		c-0.941-2.055-1.871-4.101-2.793-6.145C590.648,1122.164,591.578,1124.215,592.519,1126.266z M582.965,1104.895
		c-1.551-3.539-3.078-7.066-4.578-10.57C579.887,1097.828,581.414,1101.355,582.965,1104.895z M587.684,1115.574
		c-1.055-2.355-2.086-4.695-3.117-7.039C585.598,1110.875,586.633,1113.223,587.684,1115.574z M1366.598,586.59
		c1.547,2.246,3.066,4.508,4.551,6.793C1369.664,591.098,1368.141,588.836,1366.598,586.59z M1374.414,598.504
		c1.77,2.836,3.492,5.699,5.18,8.594C1377.906,604.203,1376.184,601.34,1374.414,598.504z M1382.914,612.969
		c1.375,2.469,2.719,4.949,4.035,7.453C1385.641,617.918,1384.289,615.438,1382.914,612.969z M1389.57,625.496
		c1.793,3.57,3.551,7.172,5.238,10.816C1393.121,632.668,1391.363,629.07,1389.57,625.496z M1396.805,640.785
		c1.23,2.758,2.434,5.527,3.598,8.32C1399.238,646.313,1398.035,643.543,1396.805,640.785z M1402.375,653.875
		c1.551,3.856,3.051,7.731,4.48,11.644C1405.426,661.606,1403.926,657.731,1402.375,653.875z M1408.391,669.875
		c1.086,3.082,2.141,6.184,3.156,9.301C1410.531,676.059,1409.477,672.957,1408.391,669.875z M1361.84,579.856
		c-1.637-2.262-3.293-4.504-5-6.719C1358.547,575.352,1360.203,577.594,1361.84,579.856z M1352.941,568.164
		c-1.715-2.129-3.461-4.227-5.23-6.313C1349.48,563.938,1351.227,566.035,1352.941,568.164z M1341.934,555.25
		c-1.707-1.894-3.426-3.777-5.188-5.621C1338.508,551.473,1340.227,553.356,1341.934,555.25z M1332.277,545.004
		c-2.105-2.121-4.254-4.195-6.434-6.25C1328.023,540.809,1330.172,542.883,1332.277,545.004z M1319.695,533.121
		c-1.867-1.656-3.742-3.297-5.652-4.91C1315.953,529.824,1317.828,531.465,1319.695,533.121z M1309.078,524.094
		c-2.977-2.398-6-4.746-9.09-7.031C1303.078,519.348,1306.102,521.695,1309.078,524.094z"/>
	<g>
		<path style="fill:#F09C39;" d="M1943.348,986.555c-27.477-69.078-70.23-140.652-129.188-187.531
			c-28.344-22.516-54.527-33.324-78.371-35.059c-3.832-12.133-7.211-22.773-10.242-32.219l-0.004-0.008
			c-0.734-2.277-1.441-4.488-2.137-6.633c-0.039-0.129-0.086-0.258-0.129-0.387c-0.66-2.047-1.309-4.039-1.938-5.969
			c-0.063-0.195-0.129-0.387-0.191-0.582c-0.613-1.863-1.211-3.68-1.793-5.434c-0.078-0.238-0.156-0.473-0.234-0.707
			c-0.559-1.691-1.109-3.34-1.645-4.934c-0.098-0.289-0.191-0.566-0.289-0.848c-0.52-1.547-1.031-3.063-1.531-4.523
			c-0.094-0.266-0.184-0.527-0.277-0.793c-0.5-1.457-0.996-2.891-1.48-4.273c-0.066-0.215-0.145-0.418-0.219-0.629
			c-0.492-1.406-0.984-2.793-1.461-4.125c-0.043-0.121-0.09-0.238-0.133-0.363c-3.199-8.906-6.07-16.203-8.957-22.734
			c0-0.008,0-0.012-0.008-0.016c-0.422-0.949-0.84-1.883-1.262-2.801c-0.082-0.184-0.164-0.367-0.246-0.547
			c-0.387-0.824-0.77-1.641-1.16-2.449c-0.121-0.262-0.25-0.527-0.371-0.785c-0.371-0.766-0.746-1.527-1.121-2.281
			c-0.141-0.281-0.281-0.57-0.422-0.852c-0.367-0.727-0.738-1.453-1.105-2.168c-0.168-0.313-0.328-0.625-0.484-0.938
			c-0.367-0.691-0.734-1.387-1.109-2.078c-0.176-0.328-0.352-0.66-0.527-0.984c-0.371-0.672-0.742-1.352-1.109-2.023
			c-0.203-0.356-0.402-0.715-0.605-1.07c-0.367-0.66-0.742-1.316-1.121-1.981c-0.211-0.363-0.422-0.734-0.637-1.105
			c-0.391-0.672-0.785-1.348-1.184-2.031c-0.211-0.356-0.43-0.719-0.641-1.082c-0.414-0.691-0.828-1.387-1.25-2.094
			c-0.23-0.387-0.473-0.773-0.707-1.16c-0.418-0.695-0.844-1.398-1.281-2.109c-0.25-0.402-0.508-0.824-0.762-1.238
			c-0.441-0.711-0.887-1.43-1.344-2.168c-0.309-0.492-0.629-1.008-0.945-1.508c-0.406-0.648-0.805-1.293-1.219-1.957
			c-0.398-0.633-0.816-1.293-1.227-1.941c-0.395-0.625-0.785-1.242-1.188-1.883c-0.367-0.578-0.754-1.184-1.133-1.777
			c-0.453-0.723-0.902-1.426-1.375-2.168c-0.836-1.324-1.707-2.688-2.602-4.094c-66.277-104.199-241.262-142.867-375.051-102.496
			c-47.625-35.172-109.203-57.105-186.855-58.66c-185.535-3.707-517.289,59.238-584.898,231.598
			c-3.961,10.094-7.223,20.465-9.957,31.012c-145.117,18.324-297.106,143.481-305.68,274.52c-0.117,1.742-0.227,3.418-0.332,5.047
			c-0.012,0.195-0.023,0.371-0.035,0.566c-0.086,1.363-0.176,2.711-0.254,4.012c-0.039,0.598-0.074,1.172-0.109,1.758
			c-0.055,0.891-0.113,1.789-0.164,2.648c-0.043,0.746-0.086,1.469-0.129,2.188c-0.035,0.645-0.074,1.293-0.109,1.922
			c-0.039,0.766-0.078,1.508-0.117,2.258c-0.031,0.605-0.066,1.215-0.094,1.809c-0.035,0.727-0.066,1.438-0.098,2.148
			c-0.027,0.551-0.051,1.113-0.074,1.652c-0.027,0.723-0.051,1.434-0.078,2.141c-0.02,0.539-0.039,1.086-0.055,1.617
			c-0.02,0.688-0.039,1.363-0.055,2.035c-0.012,0.516-0.023,1.027-0.031,1.535c-0.016,0.711-0.027,1.418-0.035,2.113
			c-0.004,0.457-0.004,0.91-0.012,1.363c0,0.719-0.004,1.434,0,2.145c0,0.453,0.004,0.902,0.008,1.355
			c0.008,0.695,0.016,1.402,0.027,2.102c0.012,0.457,0.023,0.914,0.031,1.367c0.02,0.707,0.039,1.406,0.063,2.113
			c0.016,0.441,0.035,0.879,0.055,1.316c0.027,0.73,0.059,1.461,0.098,2.203c0.02,0.398,0.047,0.809,0.07,1.219
			c0.043,0.781,0.09,1.566,0.145,2.367c0.023,0.34,0.051,0.695,0.078,1.047c0.063,0.852,0.125,1.711,0.199,2.582
			c0.023,0.297,0.055,0.598,0.082,0.902c0.082,0.945,0.168,1.891,0.266,2.859c0.004,0.047,0.008,0.094,0.012,0.141
			c0.469,4.652,1.102,9.652,1.918,15.188c0.051,0.375,0.102,0.734,0.16,1.109c0.156,1.074,0.332,2.184,0.504,3.293
			c0.078,0.484,0.148,0.957,0.227,1.449c0.176,1.113,0.367,2.273,0.559,3.438c0.082,0.527,0.168,1.039,0.258,1.574
			c0.191,1.148,0.395,2.344,0.598,3.543c0.109,0.617,0.211,1.23,0.32,1.859c0.203,1.156,0.41,2.344,0.621,3.543
			c0.129,0.73,0.262,1.457,0.395,2.207c0.215,1.207,0.441,2.461,0.672,3.719c0.141,0.773,0.285,1.559,0.43,2.352
			c0.234,1.273,0.481,2.582,0.727,3.914c0.16,0.855,0.324,1.734,0.488,2.613c0.254,1.367,0.52,2.758,0.789,4.184
			c0.16,0.848,0.328,1.707,0.492,2.582c0.297,1.551,0.598,3.137,0.91,4.758c0.145,0.75,0.297,1.52,0.441,2.285
			c0.352,1.828,0.715,3.688,1.086,5.598c0.117,0.605,0.238,1.23,0.359,1.836c0.402,2.066,0.813,4.172,1.238,6.344
			c0.098,0.488,0.195,1,0.293,1.492c0.469,2.391,0.949,4.828,1.445,7.352c0.027,0.137,0.055,0.281,0.082,0.418
			c0.559,2.828,1.129,5.723,1.723,8.723c-20.078,12.98-37.848,35.035-51.891,68.402c-29.18,69.438-32.281,152.754-23.184,226.539
			c13.781,111.797,89.582,292.746,224.207,182.434c46.121-37.789,119.629-100.781,148.223-163.871
			c0.023,0.008,0.047,0.012,0.066,0.023c4.492,1.586,8.93,2.996,13.336,4.266c0.731,0.211,1.461,0.426,2.191,0.629
			c2.098,0.582,4.191,1.137,6.273,1.648c0.473,0.117,0.941,0.215,1.414,0.324c3.895,0.926,7.773,1.723,11.625,2.398
			c0.77,0.133,1.539,0.277,2.305,0.398c1.977,0.324,3.949,0.617,5.914,0.867c0.762,0.098,1.52,0.176,2.273,0.266
			c3.492,0.41,6.977,0.711,10.445,0.91c0.859,0.047,1.723,0.105,2.578,0.145c1.859,0.078,3.719,0.129,5.57,0.145
			c0.973,0.012,1.949,0,2.918-0.008c3.149-0.023,6.293-0.129,9.43-0.32c1.027-0.063,2.055-0.113,3.082-0.195
			c1.746-0.137,3.492-0.305,5.238-0.496c1.164-0.133,2.332-0.277,3.5-0.43c2.707-0.352,5.418-0.766,8.129-1.238
			c1.379-0.242,2.754-0.473,4.137-0.75c1.617-0.32,3.242-0.676,4.863-1.043c1.375-0.305,2.754-0.641,4.133-0.984
			c1.762-0.434,3.527-0.875,5.293-1.363c2.297-0.633,4.598-1.305,6.902-2.02c1.488-0.469,2.977-0.965,4.469-1.469
			c1.605-0.535,3.219-1.094,4.832-1.676c1.402-0.5,2.809-1,4.219-1.535c2.68-1.012,5.371-2.086,8.07-3.215
			c1.324-0.551,2.656-1.141,3.988-1.715c1.883-0.824,3.777-1.672,5.68-2.543c1.277-0.59,2.555-1.168,3.84-1.785
			c2.883-1.367,5.781-2.793,8.703-4.289c1.106-0.566,2.227-1.172,3.336-1.75c2.234-1.176,4.477-2.379,6.738-3.617
			c1.156-0.637,2.316-1.27,3.48-1.922c3.121-1.754,6.266-3.563,9.445-5.449c0.824-0.492,1.66-1.008,2.488-1.504
			c2.66-1.602,5.344-3.246,8.047-4.938c1.051-0.66,2.106-1.32,3.168-1.992c3.395-2.156,6.813-4.359,10.281-6.66
			c0.445-0.297,0.906-0.613,1.359-0.91c3.188-2.125,6.414-4.317,9.664-6.559c0.984-0.676,1.973-1.359,2.961-2.047
			c3.672-2.551,7.367-5.148,11.125-7.848c15.453-11.102,29.738-21.816,42.934-32.301c-4.719-1.996-9.324-4.156-13.875-6.383
			c4.551,2.23,9.156,4.387,13.875,6.383c0.004,0,0.004,0.004,0.004,0.004c18.293,7.754,37.828,13.824,58.813,17.766
			c130.746,24.547,371.332-30.109,456.145-134.816c5.297-6.543,10.285-13.117,15.125-19.707c16.242,2.766,33.48,5.23,51.887,7.484
			c4.59,0.559,9.082,1.063,13.52,1.539c1.207,0.125,2.406,0.254,3.602,0.375c3.895,0.398,7.75,0.766,11.539,1.094
			c0.57,0.051,1.152,0.109,1.723,0.156c4.129,0.348,8.18,0.641,12.188,0.898c1.27,0.078,2.52,0.152,3.766,0.223
			c3.164,0.188,6.281,0.336,9.355,0.465c0.984,0.039,1.992,0.09,2.973,0.125c3.68,0.129,7.293,0.199,10.859,0.238
			c1.359,0.016,2.699,0.012,4.043,0.016c2.543,0,5.066-0.023,7.563-0.066c1.277-0.027,2.563-0.035,3.828-0.07
			c3.266-0.094,6.48-0.234,9.652-0.414c1.449-0.082,2.867-0.191,4.289-0.289c2.07-0.145,4.109-0.309,6.141-0.496
			c1.453-0.129,2.914-0.258,4.348-0.41c2.902-0.305,5.77-0.656,8.594-1.051c1.516-0.215,3.008-0.457,4.504-0.691
			c1.668-0.27,3.332-0.547,4.984-0.844c1.559-0.281,3.121-0.559,4.656-0.871c2.313-0.469,4.598-0.969,6.863-1.504
			c1.844-0.434,3.66-0.906,5.469-1.387c1.363-0.359,2.719-0.727,4.063-1.113c1.609-0.461,3.211-0.934,4.789-1.43
			c1.309-0.414,2.602-0.859,3.898-1.301c2.645-0.898,5.25-1.852,7.828-2.855c1.082-0.426,2.164-0.852,3.242-1.293
			c1.625-0.676,3.242-1.367,4.848-2.086c0.934-0.418,1.848-0.867,2.773-1.301c2.855-1.344,5.672-2.77,8.449-4.266
			c0.848-0.457,1.699-0.91,2.543-1.383c1.625-0.91,3.234-1.848,4.824-2.809c0.734-0.445,1.461-0.906,2.188-1.367
			c2.941-1.836,5.852-3.773,8.715-5.805c0.625-0.445,1.258-0.879,1.879-1.332c1.602-1.168,3.195-2.371,4.773-3.605
			c0.609-0.477,1.223-0.973,1.832-1.461c3.035-2.426,6.035-4.973,9-7.645c0.375-0.34,0.758-0.672,1.129-1.012
			c1.574-1.445,3.133-2.93,4.688-4.441c0.559-0.539,1.109-1.094,1.664-1.645c3.207-3.191,6.383-6.516,9.52-10.02
			c0.047-0.051,0.098-0.102,0.145-0.152c55.391,41.59,150.121,61.519,208.727,72.496
			C2005.449,1286.34,1984.98,1091.227,1943.348,986.555z"/>
		<g>
			<path style="fill:#DC7F24;" d="M1736.953,779.777l4.73,2.867c-36.457-115.59-36.457-115.59-66.699-163.129
				c-35.559-55.906-102.434-92.93-177.434-109.031c21.211,11.445,41.961,23.668,61.379,38.125
				c22.609,16.832,42.238,37.309,56.223,61.879c14.961,26.289,21.285,57.41,23.117,87.309c1.988,32.273-2.781,64.633-5.656,96.711
				c-2.84,31.703-2.66,62.73,0.785,94.348c2.504,22.914,5.266,46.008,1.023,68.887c-3.324,17.859-12.582,32.711-25.137,44.859
				c0.363-1.106,0.367-1.617-0.219-1.129c-25.043,20.621-42.172,22.066-53.113,23.848c-17.5,2.855-36.227,8.938-54.109,6.523
				c-17.559-2.363-29.125-14.531-35.227-30.738c-26.242-69.699,7.523-146.695,8.781-217.774c0.59-33.426-4.387-66.59-16.781-97.746
				c-12.824-32.246-31.961-60.301-50.055-89.668c-12.113-19.66-27.391-43.145-25.859-67.387c0.602-9.519,3.266-18.363,7.207-26.668
				c-30.898,1.539-61.375,6.527-89.977,15.156c89.574,66.149,129.715,179.199,134.055,292.086
				c2.758,71.695,2.789,141.59-8.309,209.441c-0.305,1.852-0.582,3.703-0.898,5.551c-1,5.773-2.094,11.527-3.266,17.266
				c-0.395,1.945-0.82,3.879-1.242,5.82c-0.957,4.484-1.977,8.961-3.055,13.434c-0.414,1.734-0.813,3.473-1.25,5.207
				c-1.496,5.953-3.082,11.891-4.797,17.816c-0.336,1.152-0.699,2.305-1.039,3.457c-1.508,5.078-3.102,10.145-4.773,15.191
				c-0.5,1.512-0.996,3.02-1.512,4.531c-4.195,12.254-8.902,24.434-14.18,36.539c-13.621,31.262-30.992,62.02-53.152,92.23
				c16.242,2.766,33.48,5.23,51.887,7.484c166.262,20.34,234.5-14.949,312.953-187.031
				C1741.293,968.426,1753.199,871.543,1736.953,779.777z"/>
			<path style="fill:#DC7F24;" d="M1701.355,1056.043c39.938-87.617,51.844-184.5,35.598-276.266l4.73,2.867
				c-2.09-6.609-4.039-12.797-5.898-18.68l0,0c23.848,1.734,50.031,12.543,78.375,35.059c30.793,24.481,57.121,55.727,79.203,89.809
				c-9.863,0.676-19.539,2.606-28.77,6.297c-42.977,17.215-59.34,65.199-71.664,105.973c-8.754,28.961-16.781,58.129-25.66,87.055
				c-5.648,18.418-16.078,37.324-18.766,56.48c-1.898,13.547,5.984,23.793,15.184,32.887c22.371,22.121,47.746,40.863,72.254,60.488
				c7.953,6.367,15.758,12.844,23.395,19.434c-7.836-0.492-16.129-1.504-24.961-3.16c-58.605-10.977-153.336-30.906-208.727-72.496
				c0,0,0,0,0.004-0.008C1652.199,1152.078,1676.258,1111.094,1701.355,1056.043z"/>
			<path style="fill:#F4B35A;" d="M1885.965,942.383c28.801,53.223,44.805,106.457,44.887,167.555
				c0.02,13.59,0.566,72.133-11.41,80.434c-13.465,9.332-59.902-17.523-73.223-27.234c-64.809-47.281,20.645-46.895,38.105-89.012
				c15.109-36.445,10.961-100.809-0.754-136.117L1885.965,942.383z"/>
			<path style="fill:#C2641F;" d="M1736.953,779.777l4.73,2.867c-2.09-6.609-4.039-12.797-5.898-18.68
				c23.848,1.734,50.031,12.543,78.375,35.059c6.672,5.301,13.086,10.977,19.332,16.871c-15.176,6.836-30.133,14.613-41.332,26.402
				c-17.961,18.902-26.895,45.848-34.086,70.391c-9.773,33.352-14.699,67.723-21.813,101.676
				c-6.66,31.789-16.313,61.207-29.871,90.695c-7.184,15.629-16.594,33.254-14.586,51.047c2.363,20.887,18.301,37.5,33.281,50.852
				c12.391,11.035,25.074,21.676,37.977,32.023c-48.609-12.219-101.344-30.113-137.41-57.199
				c26.547-29.703,50.605-70.688,75.703-125.738C1741.293,968.426,1753.199,871.543,1736.953,779.777z"/>
			<path style="fill:#C2641F;" d="M1736.953,779.777l4.73,2.867c-32.402-102.738-36.023-114.184-57.66-148.828
				c10.547,43.039,22.367,85.801,28.449,129.801c4.07,29.481,4.379,59.113,0.086,88.586c-4.832,33.137-16.004,65.098-23.969,97.543
				c-6.238,25.422-8.684,52.109-19.695,76.18c-5.648,12.352-16.125,18.492-27.77,24.414c-9.465,4.805-18.805,9.754-27.926,15.191
				c-15.844,9.441-27.02,23.348-37.125,38.531c-15.074,22.656-26.398,48.117-48.496,65.098
				c-25.773,19.805-63.836,13.82-93.906,11.379c-20.621-1.664-40.977-2.02-61.328-1.543c-10.289,19.063-22.141,37.934-35.828,56.594
				c0,0.004,0,0.004,0,0.004c16.23,2.77,33.48,5.227,51.887,7.48c166.262,20.34,234.5-14.949,312.953-187.031
				C1741.293,968.426,1753.199,871.543,1736.953,779.777z"/>
			<path style="fill:#F4B35A;" d="M1543.418,596.773c25.051,12.762,43.766,50.539,48.555,74.754
				c8.07,40.84-2.43,86.813-2.43,129.156c0,39.488,14.305,143.434-39.91,147.789c-16.691,1.34-41.438-1.535-53-14.348
				c-13.512-14.981-2.523-37.781,3.125-55.438c18.176-56.887,39.398-104.715,5.52-160.262c-15.02-24.641-32.707-50.82-31.09-81.871
				c1.418-27.316,29.594-47.531,56.633-43.84C1535.164,593.309,1539.379,594.719,1543.418,596.773z"/>
		</g>
		<path style="fill:#DC7F24;" d="M399.172,1390.992c-77.129-57.648-134.121-136.894-163.969-225.176l-2.77,4.785
			c-1.348-6.797-2.609-13.16-3.805-19.211l0,0c-20.078,12.98-37.848,35.035-51.891,68.402
			c-15.238,36.266-23.313,76.316-26.305,116.813c8.973-4.141,18.387-7.102,28.258-8.297c45.957-5.555,83.371,28.668,113.766,58.5
			c21.598,21.195,42.652,42.918,64.336,64.02c13.805,13.438,32.035,25.004,43.594,40.516c8.172,10.965,6.188,23.742,2.488,36.141
			c-8.992,30.148-22.238,58.777-34.305,87.762c-3.914,9.41-7.648,18.836-11.176,28.281c6.633-4.191,13.418-9.066,20.367-14.762
			c46.121-37.789,119.629-100.781,148.223-163.871c0,0,0,0-0.004,0C488.426,1451.598,447.629,1427.211,399.172,1390.992z"/>
		<path style="fill:#F4B35A;" d="M182.652,1380.023c0.316,60.508,11.859,114.883,41.145,168.512
			c6.512,11.922,34.16,63.527,48.656,65.055c16.293,1.715,44.113-44.152,51.125-59.07c34.121-72.609-40.633-31.207-76.184-59.75
			c-30.762-24.703-58.055-83.145-64.742-119.738V1380.023z"/>
		<path style="fill:#DC7F24;" d="M620.523,1182.809c-0.258,4.055-0.523,8.078-0.82,12.039c-2.195,29.379-4.406,65.027-26.93,86.93
			c-30.801,29.953-82.523,26.273-121.559,21.43c-23.445-2.902-45.32-11.91-60.578-30.59c-14.719-18.016-23.391-39.605-32.207-60.902
			c-12.168-29.383-26.922-56.68-44.645-83.117c-17.93-26.75-37.664-52.84-51.434-82.098c-12.754-27.102-22.16-57.434-21.672-87.672
			c0.457-28.27,7.832-55.66,19.574-81.285c10.082-22.008,22.406-42.699,35.508-62.93c-58.035,50.164-98.895,114.762-103.219,180.875
			c-3.676,56.223-3.676,56.223,19.891,175.113l2.77-4.785c29.848,88.281,86.84,167.527,163.969,225.176
			c151.484,113.219,228.285,111.375,364.324,13.652c15.453-11.102,29.738-21.816,42.934-32.301l0,0
			C720.34,1335.855,662.719,1260.934,620.523,1182.809z"/>
		<path style="fill:#C2641F;" d="M748.883,1339.633c-18.813,9.66-37.184,20.113-55.137,31.926
			c-25.203,16.586-55.703,40.121-87.828,35.137c-27.535-4.277-49.695-21.164-73.805-33.785c-16.16-8.465-32.641-15.289-51.07-15.957
			c-10.609-0.387-21.188-0.234-31.793,0.098c-13.055,0.402-25.199,0.047-36.086-8.063c-21.223-15.816-36.191-38.051-53.879-57.352
			c-22.57-24.621-47.73-47.289-67.887-74.031c-17.926-23.781-31.898-49.918-42.488-77.723
			c-15.813-41.512-25.992-84.691-37.426-127.508c-2.324,40.781,0.004,52.555,20.949,158.227l2.77-4.785
			c29.848,88.281,86.84,167.527,163.969,225.176c151.484,113.219,228.285,111.375,364.324,13.652
			c15.449-11.098,29.75-21.816,42.941-32.297c0,0-0.004-0.004-0.008-0.004C785.637,1363.531,766.539,1352.43,748.883,1339.633z"/>
		<path style="fill:#DC7F24;" d="M1372.527,1040.77c-16.695,42.68-46.629,60.242-68.965,100.727
			c-9.98,18.094-23.945,34.391-42.793,43.609c-20.465,10.008-41.539,10.664-63.883,8.016
			c-56.445-6.695-112.984-29.223-170.242-22.859c-38.336,4.258-82.914,16.262-117.656-6.906c-20.223-13.484-35-32.734-49.402-51.98
			c-13.098-17.496-25.125-35.793-36.359-54.543c-27.262-45.488-50.949-93.363-69.922-142.906
			c-18.734-48.922-34.406-100.59-37.711-153.156c-2.797-44.445,4.844-85.785,30.332-122.902
			c27.148-39.535,66.926-66.707,109.473-87.547c62.516-30.633,135.203-51.547,193.813-90.813
			c-189.438,9.824-460.633,76.473-521.031,230.449c-48.453,123.524-1.309,284.18,50.207,404.367
			c51.512,120.176,129.563,266.242,286.859,295.789c130.746,24.547,371.332-30.109,456.145-134.816
			c82.953-102.406,108.121-211.156,113.121-325.109C1396.105,945.723,1388.859,999.047,1372.527,1040.77z"/>
		<path style="fill:#C2641F;" d="M1225.188,1266.902c-23.949,4.461-47.031,14.582-69.469,23.75
			c-25.844,10.563-51.555,21.539-77.867,30.898c-44.004,15.664-96.758,32.156-143.375,17.93
			c-22.242-6.785-40.656-20.297-55.074-38.5c-13.617-17.195-20.609-35.895-27.066-56.559c-7.328-23.449-19.914-39.926-42.644-50.59
			c-22.359-10.492-45.531-17.199-69.137-24.02c-12.352-3.57-23.613-8.496-31.406-19.195c-14.715-20.195-21.098-46.934-28.863-70.23
			c-22.938-68.809-42.289-138.738-57.031-209.77c-7.441-35.867-14.953-72.113-19.613-108.465c-3.473-27.07-5.23-55.207,0.363-82.141
			c8.336-40.133,33.066-68.816,64.402-93.762c28.402-22.606,56.762-44.273,82.324-69.391
			c-103.602,37.133-191.297,93.426-222.551,173.098c-48.453,123.524-1.309,284.18,50.207,404.367
			c51.512,120.176,129.563,266.242,286.859,295.789c125.484,23.566,352.066-25.871,445.086-122.457
			C1281.965,1263.848,1253.598,1261.609,1225.188,1266.902z"/>
		<path style="fill:#F4B35A;" d="M314.492,907.93c-7.891,33.895,14.594,77.363,26.902,107.414
			c24.309,59.375,60.914,157.539,130.469,164.309c97.848,9.527,30.578-123.258,13.941-164.309
			c-14.973-36.949-22.031-72.59-26.895-111.769c-3.836-30.938,29.234-98.34-11.914-106.047
			C405.152,789.691,322.516,873.516,314.492,907.93z"/>
		<path style="fill:#DC7F24;" d="M791.305,871.144c17.617,41.867,44.906,79.754,63.488,120.848
			c19.16,42.367,21.273,85.207,71.215,98.941c41.602,11.445,86.664-9.121,129.711-11.363c37.438-1.949,77.875,33.152,110.848,22.16
			c94.285-31.422-28.547-156.578-50.125-200.652c-37.086-75.742-28.055-242.715-150.395-240.262
			c-47.461,0.957-104.152,44.789-139.59,72.684C780.09,769.996,767.816,815.336,791.305,871.144z"/>
		<path style="fill:#F4B35A;" d="M1006.75,541.871c-50.512,18.773-4.102,64.613,48.977,84.813
			c95.961,36.516,157.852,44.02,200.805,144.543c12.414,29.07,30.18,81.629,57.27,101.008
			c48.301,34.559,51.387-32.621,51.238-70.938c-0.293-81.285-32.77-158.598-71.219-228.344
			C1247.176,488.332,1112.953,502.398,1006.75,541.871z"/>
		<path style="fill:#C2641F;" d="M235.203,1165.816l-2.77,4.785c-1.348-6.797-2.609-13.16-3.805-19.211
			c-20.078,12.98-37.848,35.035-51.891,68.402c-3.301,7.855-6.203,15.914-8.848,24.082c16.594-1.301,33.449-1.66,48.938,3.297
			c24.836,7.945,45.613,27.285,63.719,45.355c24.594,24.551,45.426,52.332,67.98,78.688c21.117,24.68,43.715,45.84,69.777,65.188
			c13.809,10.25,30.531,21.188,37.32,37.758c7.965,19.453,1.973,41.68-4.758,60.582c-5.559,15.637-11.57,31.066-17.914,46.336
			c36.754-34.066,74.402-75.105,93.027-116.184c-37.555-13.297-78.352-37.684-126.809-73.902
			C322.043,1333.344,265.051,1254.098,235.203,1165.816z"/>
	</g>
</g>
</svg>
